<svg version="1.1" xmlns="http://www.w3.org/2000/svg" viewBox="0 0 541.3395328428223 261.2719765735976" width="541.3395328428223" height="261.2719765735976" class="excalidraw-svg"><!-- svg-source:excalidraw --><metadata></metadata><defs><style class="style-fonts">
      </style></defs><rect x="0" y="0" width="541.3395328428223" height="261.2719765735976" fill="#ffffff"></rect><g stroke-linecap="round" transform="translate(111.2085197142884 51.27197657359761) rotate(0 48 100)"><path d="M24 0 C40.72 -0.63, 56.52 0.88, 72 0 M24 0 C37.01 0.83, 48.83 -0.5, 72 0 M72 0 C88.15 -0.64, 95.8 6.78, 96 24 M72 0 C89.95 0.21, 96.63 9.74, 96 24 M96 24 C92.75 54.96, 93.08 86.57, 96 176 M96 24 C94.07 61.58, 94.17 99.85, 96 176 M96 176 C97.32 190.99, 86.34 199.36, 72 200 M96 176 C95.97 190.49, 89.96 201.07, 72 200 M72 200 C53.73 200.05, 37.51 200.09, 24 200 M72 200 C58.18 201.05, 42.72 200.55, 24 200 M24 200 C6.45 201.25, -1.34 193.56, 0 176 M24 200 C5.74 201.4, -0.96 193, 0 176 M0 176 C-0.61 131.86, -0.43 91, 0 24 M0 176 C0.89 127.67, -0.03 79.94, 0 24 M0 24 C-0.97 6.36, 7.42 0.97, 24 0 M0 24 C1.3 6.07, 5.89 0.47, 24 0" stroke="#1e1e1e" stroke-width="2" fill="none"></path></g><g stroke-linecap="round" transform="translate(311.2085197142884 51.27197657359761) rotate(0 48 100)"><path d="M24 0 C41.79 -1.74, 55.22 0.98, 72 0 M24 0 C43.26 -0.25, 61.16 -0.46, 72 0 M72 0 C86.09 -1.61, 95.65 9.87, 96 24 M72 0 C87.6 -1.91, 96.81 6.51, 96 24 M96 24 C95.42 68.84, 98.35 114.48, 96 176 M96 24 C96.22 84.12, 96.02 145.21, 96 176 M96 176 C95.5 190.75, 87.68 200.07, 72 200 M96 176 C97.31 194.11, 88.45 202.09, 72 200 M72 200 C60.43 198.11, 44.99 200.09, 24 200 M72 200 C55.68 200.25, 41.65 199.5, 24 200 M24 200 C9.9 199.99, 1.52 193.47, 0 176 M24 200 C10.09 199.88, -0.57 190.37, 0 176 M0 176 C1.05 116.11, -0.69 59.61, 0 24 M0 176 C-1.18 145.71, -1.28 115.26, 0 24 M0 24 C-1.71 8.27, 9.45 1.49, 24 0 M0 24 C0.75 8.87, 9.34 -0.43, 24 0" stroke="#1e1e1e" stroke-width="2" fill="none"></path></g><g stroke-linecap="round"><g transform="translate(213.2085197142884 151.29197657359757) rotate(0 49.49412651532795 -0.5286732683109534)"><path d="M0.11 0.64 C16.67 0.79, 83.74 0.03, 100.28 -0.22 M-1.29 -0.07 C15.09 -0.12, 83.08 -1.25, 99.7 -1.72" stroke="#1e1e1e" stroke-width="2" fill="none"></path></g><g transform="translate(213.2085197142884 151.29197657359757) rotate(0 49.49412651532795 -0.5286732683109534)"><path d="M76.39 7.33 C86.34 5.05, 96.04 0.06, 99.7 -1.72 M76.39 7.33 C84.81 4.23, 92.36 0.51, 99.7 -1.72" stroke="#1e1e1e" stroke-width="2" fill="none"></path></g><g transform="translate(213.2085197142884 151.29197657359757) rotate(0 49.49412651532795 -0.5286732683109534)"><path d="M76.03 -9.77 C85.95 -5.6, 95.8 -4.13, 99.7 -1.72 M76.03 -9.77 C84.67 -6.9, 92.34 -4.66, 99.7 -1.72" stroke="#1e1e1e" stroke-width="2" fill="none"></path></g></g><mask></mask><g stroke-linecap="round"><g transform="translate(11.2085197142884 151.2719765735976) rotate(0 46.843043841626496 -0.2897851682188275)"><path d="M0.16 0.87 C15.84 1.11, 79.18 0.44, 94.89 0.41 M-1.21 0.28 C14.31 0.24, 78.56 -1.25, 94.42 -1.5" stroke="#1e1e1e" stroke-width="2" fill="none"></path></g><g transform="translate(11.2085197142884 151.2719765735976) rotate(0 46.843043841626496 -0.2897851682188275)"><path d="M71.1 7.51 C81.26 5.63, 89.1 1.56, 94.42 -1.5 M71.1 7.51 C80.33 4.32, 87.29 1.58, 94.42 -1.5" stroke="#1e1e1e" stroke-width="2" fill="none"></path></g><g transform="translate(11.2085197142884 151.2719765735976) rotate(0 46.843043841626496 -0.2897851682188275)"><path d="M70.76 -9.59 C80.9 -5.13, 88.87 -2.88, 94.42 -1.5 M70.76 -9.59 C80.08 -6.65, 87.16 -3.27, 94.42 -1.5" stroke="#1e1e1e" stroke-width="2" fill="none"></path></g></g><mask></mask><g stroke-linecap="round"><g transform="translate(404.2834029078262 153.12648886390426) rotate(0 63.20874883531769 -0.5689088935145463)"><path d="M-0.64 0.58 C20.49 0.34, 105.89 -1.18, 127.06 -1.72 M1.23 -0.16 C22.19 -0.17, 105.5 0.16, 126.18 -0.11" stroke="#1e1e1e" stroke-width="2" fill="none"></path></g><g transform="translate(404.2834029078262 153.12648886390426) rotate(0 63.20874883531769 -0.5689088935145463)"><path d="M102.71 8.52 C111.27 6.08, 118.09 2.12, 126.18 -0.11 M102.71 8.52 C108.5 7.07, 113.5 4.43, 126.18 -0.11" stroke="#1e1e1e" stroke-width="2" fill="none"></path></g><g transform="translate(404.2834029078262 153.12648886390426) rotate(0 63.20874883531769 -0.5689088935145463)"><path d="M102.66 -8.58 C111.2 -5.51, 118.04 -3.94, 126.18 -0.11 M102.66 -8.58 C108.46 -6.08, 113.47 -4.76, 126.18 -0.11" stroke="#1e1e1e" stroke-width="2" fill="none"></path></g></g><mask></mask><g stroke-linecap="round"><g transform="translate(51.2085197142884 151.2719765735976) rotate(0 0.14086078500375265 -69.90489056533204)"><path d="M0.97 -0.89 C0.88 -24.2, 0.44 -117.92, 0.17 -141.07 M0.03 1.26 C-0.27 -21.84, -0.39 -116.82, -0.69 -140.09" stroke="#1e1e1e" stroke-width="2" fill="none"></path></g></g><mask></mask><g stroke-linecap="round"><g transform="translate(51.2085197142884 11.271976573597613) rotate(0 209.4960272533726 -0.27236566194747525)"><path d="M0.16 0.48 C70.1 0.76, 350.08 0.83, 420.2 0.56 M-1.21 -0.31 C68.54 -0.3, 349.06 -1.25, 419.36 -1.27" stroke="#1e1e1e" stroke-width="2" fill="none"></path></g></g><mask></mask><g stroke-linecap="round"><g transform="translate(471.2085197142884 11.271976573597613) rotate(0 -0.20493798320079293 70.27141766922549)"><path d="M0.51 0.74 C0.54 23.95, 0.18 115.94, 0.02 139.3 M-0.69 0.08 C-0.8 23.43, -0.79 117.31, -0.92 140.47" stroke="#1e1e1e" stroke-width="2" fill="none"></path></g><g transform="translate(471.2085197142884 11.271976573597613) rotate(0 -0.20493798320079293 70.27141766922549)"><path d="M-9.41 116.95 C-5.74 123.7, -5.7 129.65, -0.92 140.47 M-9.41 116.95 C-5.91 126.5, -3.99 134.62, -0.92 140.47" stroke="#1e1e1e" stroke-width="2" fill="none"></path></g><g transform="translate(471.2085197142884 11.271976573597613) rotate(0 -0.20493798320079293 70.27141766922549)"><path d="M7.69 116.99 C6.45 123.81, 1.58 129.74, -0.92 140.47 M7.69 116.99 C4.82 126.49, 0.38 134.59, -0.92 140.47" stroke="#1e1e1e" stroke-width="2" fill="none"></path></g></g><mask></mask></svg>